<svg xmlns="http://www.w3.org/2000/svg" width="38.55" height="36" viewBox="0 0 38.55 36">
  <g id="Group_3" data-name="Group 3" transform="translate(-300.519 -92.34)">
    <g id="Group_2" data-name="Group 2" transform="translate(308.904 92.34)">
      <path id="Path_11" data-name="Path 11" d="M329.582,103.226a10.784,10.784,0,0,1-2.209,6.562,10.877,10.877,0,1,1,2.209-6.562Z" transform="translate(-307.795 -92.34)" fill="#1675bf"/>
    </g>
    <path id="Path_12" data-name="Path 12" d="M339.069,122.952v1.518a.756.756,0,0,1-.806.77h-36.94a.756.756,0,0,1-.8-.77v-1.518a10.271,10.271,0,0,1,10.273-10.273h18A10.272,10.272,0,0,1,339.069,122.952Z" transform="translate(0 3.101)" fill="#1675bf"/>
  </g>
</svg>
